<svg xmlns="http://www.w3.org/2000/svg" xmlns:xlink="http://www.w3.org/1999/xlink" version="1.1" x="0px" y="0px" viewBox="0 0 52 65" style="enable-background:new 0 0 52 52;" xml:space="preserve"><style type="text/css">
	.st0{fill:none;stroke:#000000;stroke-width:2;stroke-miterlimit:10;}
	.st1{fill:none;stroke:#000000;stroke-width:2;stroke-linecap:round;stroke-linejoin:round;stroke-miterlimit:10;}
</style><g><g><path d="M26.0869141,28.276289c-10.3266602,0-21.3022461-2.5810547-21.3022461-7.3652344    c0-4.7832031,10.9755859-7.3642578,21.3022461-7.3642578c10.3271484,0,21.3027344,2.5810547,21.3027344,7.3642578    C47.3896484,25.6952343,36.4140625,28.276289,26.0869141,28.276289z M26.0869141,15.5467968    c-11.9589844,0-19.3022461,3.1240234-19.3022461,5.3642578s7.3432617,5.3652344,19.3022461,5.3652344    c11.9594727,0,19.3027344-3.125,19.3027344-5.3652344S38.0463867,15.5467968,26.0869141,15.5467968z"/></g><g><path d="M39.6176758,44.6639862c-0.215332,0-0.4282227-0.0693359-0.6040039-0.203125    c-0.2495117-0.1884766-0.3959961-0.4833984-0.3959961-0.796875v-18.01758c0-0.4482422,0.2978516-0.8417969,0.7294922-0.9628906    c4.4599609-1.2539063,6.0424805-2.8154297,6.0424805-3.7724609c0-0.5527344,0.4477539-1,1-1s1,0.4472656,1,1v18.008791    c0,2.3525391-2.59375,4.3261719-7.5009766,5.7070313C39.7993164,44.6512909,39.7084961,44.6639862,39.6176758,44.6639862z     M40.6176758,26.394453v15.9160175c3.4946289-1.1757813,4.7719727-2.5283203,4.7719727-3.390625V24.1903515    C44.2602539,25.0243359,42.6616211,25.7645702,40.6176758,26.394453z"/></g><g><path d="M19.3217773,45.9247284c-0.0366211,0-0.0737305-0.0019531-0.1103516-0.0058594    c-2.5610352-0.2851563-4.8911133-0.7197266-6.9257813-1.2919922c-0.4311523-0.1220703-0.7290039-0.5146484-0.7290039-0.9628906    v-18.01758c0-0.3134766,0.1464844-0.6083984,0.3959961-0.796875c0.2495117-0.1904297,0.5737305-0.2490234,0.8745117-0.1660156    c1.9321289,0.5429688,4.1542969,0.9570313,6.6049805,1.2285156c0.5063477,0.0566406,0.8896484,0.484375,0.8896484,0.9941406    v18.0185566c0,0.2841797-0.1210938,0.5556641-0.3330078,0.7451172    C19.8041992,45.8348846,19.5664063,45.9247284,19.3217773,45.9247284z M13.5566406,42.8973846    c1.4472656,0.3691406,3.043457,0.6699219,4.7651367,0.8984375v-16.001955    c-1.7045898-0.2167969-3.2998047-0.5029297-4.7651367-0.8544922V42.8973846z"/></g><g><path d="M12.5566406,44.6639862c-0.0908203,0-0.1816406-0.0126953-0.2709961-0.0371094    C7.378418,43.2460175,4.784668,41.2723846,4.784668,38.9198456v-18.008791c0-0.5527344,0.4477539-1,1-1s1,0.4472656,1,1    c0,0.9570313,1.5825195,2.5185547,6.0424805,3.7724609c0.4316406,0.1210938,0.7294922,0.5146484,0.7294922,0.9628906v18.01758    c0,0.3134766-0.1464844,0.6083984-0.3959961,0.796875C12.9848633,44.5946503,12.7719727,44.6639862,12.5566406,44.6639862z     M6.784668,24.1903515v14.7294941c0,0.8623047,1.2773438,2.2148438,4.7719727,3.390625V26.394453    C9.5126953,25.7645702,7.9140625,25.0243359,6.784668,24.1903515z"/></g><g><path d="M26.0869141,46.2948456c-2.3149414,0-4.628418-0.1269531-6.8754883-0.3759766    c-0.5063477-0.0566406-0.8896484-0.484375-0.8896484-0.9941406V26.9061718c0-0.2841797,0.1210938-0.5556641,0.3330078-0.7451172    c0.2124023-0.1904297,0.4941406-0.28125,0.7773438-0.2490234c2.1743164,0.2421875,4.4135742,0.3642578,6.6547852,0.3642578    c0.5522461,0,1,0.4472656,1,1v18.0185566C27.0869141,45.84758,26.6391602,46.2948456,26.0869141,46.2948456z     M20.3217773,44.0223846c1.5673828,0.1494141,3.1630859,0.2382813,4.7651367,0.2646484V28.2684765    c-1.6005859-0.0253906-3.1962891-0.1103516-4.7651367-0.2558594V44.0223846z"/></g><g><path d="M26.0869141,46.2948456c-0.5522461,0-1-0.4472656-1-1V27.276289c0-0.5527344,0.4477539-1,1-1    c2.2412109,0,4.4804688-0.1220703,6.6552734-0.3642578c0.2817383-0.0322266,0.5649414,0.0585938,0.7773438,0.2490234    c0.2119141,0.1894531,0.3330078,0.4609375,0.3330078,0.7451172v18.0185566c0,0.5097656-0.3833008,0.9375-0.8896484,0.9941406    C30.7148438,46.1678925,28.4018555,46.2948456,26.0869141,46.2948456z M27.0869141,28.2684765v16.0185566    c1.6020508-0.0263672,3.1982422-0.1152344,4.765625-0.2646484V28.0126171    C30.2832031,28.1581249,28.6875,28.2430859,27.0869141,28.2684765z"/></g><g><path d="M32.8525391,45.9247284c-0.2446289,0-0.4824219-0.0898438-0.6669922-0.2548828    c-0.2119141-0.1894531-0.3330078-0.4609375-0.3330078-0.7451172V26.9061718c0-0.5097656,0.3833008-0.9375,0.8896484-0.9941406    c2.449707-0.2714844,4.6723633-0.6855469,6.6049805-1.2285156c0.2998047-0.0839844,0.625-0.0244141,0.8745117,0.1660156    c0.2495117,0.1884766,0.3959961,0.4833984,0.3959961,0.796875v18.01758c0,0.4482422-0.2978516,0.8408203-0.7290039,0.9628906    c-2.0356445,0.5722656-4.3657227,1.0078125-6.9257813,1.2919922    C32.9262695,45.9227753,32.8891602,45.9247284,32.8525391,45.9247284z M33.8525391,27.7938671v16.001955    c1.7211914-0.2285156,3.3173828-0.5292969,4.7651367-0.8984375V26.9393749    C37.1518555,27.2909374,35.5566406,27.5770702,33.8525391,27.7938671z"/></g><g><path d="M31.8378906,21.1024609c-0.2973633,0-0.5917969-0.1318359-0.7885742-0.3847656    c-0.3398438-0.4355469-0.2626953-1.0634766,0.1728516-1.4033203L48.3847656,5.916914    c0.4350586-0.3388672,1.0644531-0.2636719,1.4033203,0.1728516c0.3398438,0.4355469,0.2626953,1.0634766-0.1728516,1.4033203    L32.4526367,20.8905468C32.2700195,21.0331249,32.0532227,21.1024609,31.8378906,21.1024609z"/></g><g><path d="M20.1621094,23.1327343c-0.215332,0-0.4321289-0.0693359-0.6147461-0.2119141L2.3847656,9.5233593    C1.9492188,9.1835155,1.8720703,8.5555859,2.2119141,8.120039c0.3398438-0.4365234,0.9692383-0.5117188,1.4033203-0.1728516    L20.777832,21.3446484c0.4355469,0.3398438,0.5126953,0.9677734,0.1728516,1.4033203    C20.7539063,23.0008984,20.4594727,23.1327343,20.1621094,23.1327343z"/></g></g><text x="0" y="67" fill="#000000" font-size="5px" font-weight="bold" font-family="'Helvetica Neue', Helvetica, Arial-Unicode, Arial, Sans-serif">Created by DinosoftLabs</text><text x="0" y="72" fill="#000000" font-size="5px" font-weight="bold" font-family="'Helvetica Neue', Helvetica, Arial-Unicode, Arial, Sans-serif">from the Noun Project</text></svg>